<?xml version="1.0" encoding="UTF-8" standalone="no"?>
<svg
   viewBox="0 0 1254.5876 430"
   version="1.1"
   id="svg5116"
   style="fill:none"
   xmlns="http://www.w3.org/2000/svg"
   xmlns:svg="http://www.w3.org/2000/svg"
   xmlns:rdf="http://www.w3.org/1999/02/22-rdf-syntax-ns#"
   xmlns:cc="http://creativecommons.org/ns#"
   xmlns:dc="http://purl.org/dc/elements/1.1/">
  <metadata
     id="metadata5122">
    <rdf:RDF>
      <cc:Work
         rdf:about="">
        <dc:format>image/svg+xml</dc:format>
        <dc:type
           rdf:resource="http://purl.org/dc/dcmitype/StillImage" />
        <dc:title />
      </cc:Work>
    </rdf:RDF>
  </metadata>
  <defs
     id="defs5120" />
  <circle
     cx="215"
     cy="215"
     r="175"
     id="circle5108"
     style="fill:#eb88e7;stroke:#9831a0;stroke-width:20" />
  <path
     d="m 166.7052,341.08177 c 27.00495,-48.42658 16.64411,-77.41469 8.0882,-85.8561 l -1.25946,-1.24218 c -8.55698,-8.44141 -37.94151,-18.66291 -87.028284,7.97803 3.91361,8.73845 4.94127,14.76139 11.4464,23.78068 6.505024,9.01929 18.851084,9.83589 27.817444,17.81499 8.08712,8.84539 9.11327,21.22072 18.25569,27.63792 9.14243,6.4172 13.82274,6.02618 22.68001,9.88666 z"
     id="path5110"
     style="fill:#ffffff;stroke-width:1" />
  <path
     d="m 343.49411,166.67243 c -49.08654,26.64201 -78.47107,16.41943 -87.02805,7.9791 l -1.25838,-1.24218 c -8.55699,-8.44141 -18.91783,-37.4306 8.08712,-85.856629 8.85726,3.860905 14.9623,4.87463 24.10473,11.292153 9.14243,6.417516 9.97091,18.597346 18.05802,27.442726 8.96637,7.97911 21.51021,8.99121 28.0149,18.0105 6.50577,9.0193 6.10827,13.63696 10.02166,22.37433 z"
     id="path5112"
     style="fill:#ffffff;stroke-width:1" />
  <rect
     width="124.33984"
     height="139.35831"
     rx="54.007732"
     transform="matrix(-0.71188205,-0.70229905,-0.71188205,0.70229905,0,0)"
     id="rect5114"
     x="-365.85791"
     y="-68.893806"
     style="fill:#ffffff;stroke-width:1" />
  <g
     aria-label="taffy"
     id="text5126"
     style="font-size:343.839px;line-height:1.25;letter-spacing:0px;word-spacing:0px;fill:#9831a0">
    <path
       d="m 539.42645,322.12116 q -20.97418,0 -31.97702,-13.06588 -11.00285,-13.40972 -11.00285,-36.1031 V 119.25616 q 0,-11.34669 7.56446,-17.53579 7.90829,-6.532943 19.59882,-6.532943 10.31517,0 17.19195,3.782229 6.87678,3.782224 9.62749,6.532944 -4.46991,16.50427 -5.84526,30.94551 -1.03152,14.44123 -1.03152,35.75925 v 96.61876 q 0,8.93981 3.78223,13.75356 4.12607,4.4699 11.69052,4.4699 3.43839,0 7.56446,-1.03151 4.46991,-1.03152 5.84526,-3.43839 2.75072,3.43839 3.78223,7.56445 1.03152,4.12607 1.03152,7.22062 0,10.65901 -10.31517,17.87963 -9.97133,6.87678 -27.50712,6.87678 z m -68.7678,-158.50977 0.34384,-11.34669 q 0.34384,-5.84526 3.78223,-8.25214 3.78223,-2.75071 8.59598,-2.75071 h 59.82798 q 1.37536,0 7.22062,0 6.1891,-0.34384 13.75356,-0.34384 7.9083,-0.34384 13.75356,-0.34384 6.1891,-0.34384 7.56446,-0.68767 l -0.34384,11.00284 q -0.34384,5.50143 -3.78223,8.59598 -3.43839,2.75071 -8.25214,2.75071 h -81.83368 q -3.43839,0 -10.31517,0.34384 -6.87678,0.34384 -10.31517,1.03152 z"
       style="font-weight:bold;line-height:0;font-family:arima;-inkscape-font-specification:arima;letter-spacing:-0.48402px"
       id="path12" />
    <path
       d="m 749.37175,322.12116 q -17.87963,0 -28.1948,-12.72204 -9.97133,-13.06588 -9.97133,-46.07443 v -13.06588 l 8.25214,1.7192 q -3.43839,18.91114 -13.06588,35.07157 -9.62749,15.8166 -24.75641,25.44409 -15.12892,9.62749 -35.75926,9.62749 -19.59882,0 -32.6647,-10.31517 -12.72204,-10.31517 -12.72204,-30.25783 0,-16.50427 8.93981,-27.85096 9.28365,-11.69052 23.03721,-18.91114 14.0974,-7.22062 28.1948,-11.34669 13.75356,-3.78223 25.78793,-5.15759 12.3782,-1.71919 22.00569,-2.06303 v -8.59597 q 0,-27.85096 -6.1891,-41.94836 -6.1891,-14.0974 -22.34954,-14.0974 -6.53294,0 -12.03436,2.75071 -5.15758,2.40688 -8.25214,7.9083 -2.75071,5.50142 -2.75071,14.78508 0,6.87678 2.40688,14.09739 2.40687,7.22062 9.62749,11.34669 -4.12607,4.12607 -11.00285,6.1891 -6.53294,2.06304 -14.0974,2.06304 -16.84811,0 -26.13176,-9.28366 -8.93982,-9.28365 -8.93982,-22.69337 0,-20.63034 19.94267,-31.63319 20.2865,-11.00284 53.98272,-11.00284 38.50996,0 56.38959,17.19195 17.87963,17.19195 17.87963,57.42111 v 58.10879 q 0,18.22346 11.34668,18.22346 1.7192,0 4.46991,-1.03151 3.09455,-1.03152 4.81375,-3.43839 2.40687,3.43839 3.43839,7.56445 1.03151,4.12607 1.03151,7.22062 0,9.97133 -8.93981,17.53579 -8.59597,7.22062 -23.72489,7.22062 z m -78.73913,-30.60167 q 6.53294,-0.68768 13.40972,-5.15759 6.87678,-4.81374 12.72205,-12.72204 5.84526,-8.25213 9.28365,-18.91114 3.78223,-10.65901 3.78223,-23.38105 -6.53294,0 -13.40972,0.68767 -6.87678,0.34384 -13.40972,2.06304 -6.18911,1.71919 -11.69053,4.81374 -8.25214,4.46991 -13.75356,12.72205 -5.15758,7.90829 -5.15758,18.22346 0,8.59598 4.12606,15.8166 4.46991,6.87678 14.0974,5.84526 z"
       style="font-weight:bold;line-height:0;font-family:arima;-inkscape-font-specification:arima;letter-spacing:-0.48402px"
       id="path14" />
    <path
       d="m 837.94164,323.84035 q -11.69052,0 -19.59882,-6.53294 -7.56446,-6.53294 -7.56446,-17.87962 V 135.76043 q 0,-15.47276 3.09455,-28.53864 3.43839,-13.06588 11.00285,-23.037211 7.9083,-9.971331 20.97418,-15.472754 13.06588,-5.501424 32.32086,-5.501424 25.44409,0 39.19765,7.908297 14.0974,7.908296 14.0974,22.349534 0,9.971328 -7.56446,16.504268 -7.56446,6.18911 -18.56731,6.18911 -6.87678,0 -12.72204,-1.7192 -5.50142,-2.06303 -8.59597,-5.50142 3.43839,-4.81375 4.81374,-8.93982 1.37536,-4.126065 1.37536,-8.595972 0,-7.220619 -3.09455,-10.31517 -2.75071,-3.43839 -9.62749,-3.43839 -10.31517,0 -14.44124,9.283653 -4.12607,9.283653 -4.81375,24.412569 -0.34384,15.12891 -0.34384,33.00854 v 124.12588 q 0,7.56446 1.03152,20.63034 1.37536,12.72204 5.84526,24.06873 -4.4699,4.12606 -11.34668,7.22061 -6.53294,3.43839 -15.47276,3.43839 z m -50.54433,-160.22896 0.34384,-11.34669 q 0.34384,-5.84526 3.78223,-8.25214 3.78223,-2.75071 8.59597,-2.75071 h 61.89102 q 1.37536,0 6.87678,0 5.84526,-0.34384 12.72204,-0.34384 7.22062,-0.34384 12.72205,-0.34384 5.84526,-0.34384 7.22062,-0.68767 l -0.34384,11.00284 q -0.34384,5.50143 -3.78223,8.59598 -3.43839,2.75071 -8.25214,2.75071 h -81.146 q -3.43839,0 -10.31517,0.34384 -6.87678,0.34384 -10.31517,1.03152 z"
       style="font-weight:bold;line-height:0;font-family:arima;-inkscape-font-specification:arima;letter-spacing:-0.48402px"
       id="path16" />
    <path
       d="m 977.05563,323.84035 q -11.69053,0 -19.59883,-6.53294 -7.56445,-6.53294 -7.56445,-17.87962 V 135.76043 q 0,-15.47276 3.09455,-28.53864 3.43839,-13.06588 11.00284,-23.037211 7.9083,-9.971331 20.97418,-15.472754 13.06588,-5.501424 32.32088,-5.501424 25.4441,0 39.1976,7.908297 14.0974,7.908296 14.0974,22.349534 0,9.971328 -7.5644,16.504268 -7.5645,6.18911 -18.5673,6.18911 -6.8768,0 -12.7221,-1.7192 -5.5014,-2.06303 -8.596,-5.50142 3.4384,-4.81375 4.8138,-8.93982 1.3754,-4.126065 1.3754,-8.595972 0,-7.220619 -3.0946,-10.31517 -2.7507,-3.43839 -9.6275,-3.43839 -10.3152,0 -14.4412,9.283653 -4.1261,9.283653 -4.81377,24.412569 -0.34384,15.12891 -0.34384,33.00854 v 124.12588 q 0,7.56446 1.03151,20.63034 1.37536,12.72204 5.8453,24.06873 -4.46994,4.12606 -11.34672,7.22061 -6.53294,3.43839 -15.47275,3.43839 z m -50.54434,-160.22896 0.34384,-11.34669 q 0.34384,-5.84526 3.78223,-8.25214 3.78223,-2.75071 8.59598,-2.75071 h 61.89106 q 1.3753,0 6.8767,0 5.8453,-0.34384 12.7221,-0.34384 7.2206,-0.34384 12.722,-0.34384 5.8453,-0.34384 7.2206,-0.68767 l -0.3438,11.00284 q -0.3438,5.50143 -3.7822,8.59598 -3.4384,2.75071 -8.2522,2.75071 h -81.14597 q -3.43839,0 -10.31517,0.34384 -6.87678,0.34384 -10.31517,1.03152 z"
       style="font-weight:bold;line-height:0;font-family:arima;-inkscape-font-specification:arima;letter-spacing:-0.48402px"
       id="path18" />
    <path
       d="m 1133.7057,395.7027 q -17.1919,0 -32.3209,-3.09455 -15.1289,-3.09455 -24.4125,-11.00285 -9.2837,-7.90829 -9.2837,-22.00569 0,-11.34669 8.9398,-18.56731 8.9398,-6.87678 23.3811,-6.87678 15.1289,0 21.318,7.9083 -5.1576,3.43839 -7.5645,8.25214 -2.4068,4.81374 -2.4068,9.28365 0,6.1891 2.4068,11.00285 2.7508,5.15758 7.9083,7.90829 5.1576,3.09455 13.0659,3.09455 22.0057,0 33.3524,-20.63033 11.3467,-20.2865 11.3467,-53.29505 0,-4.4699 1.0315,-12.72204 1.0315,-8.25214 2.4069,-16.84811 1.3753,-8.59598 2.4068,-14.44124 l 2.7508,-8.93981 q -4.4699,30.94551 -18.9112,48.82513 -14.4412,17.53579 -43.3237,17.53579 -27.1633,0 -40.573,-15.81659 -13.4097,-15.81659 -13.4097,-53.29504 v -60.51567 q 0,-7.90829 -1.3754,-20.63034 -1.0315,-12.72204 -5.5014,-24.41256 4.8137,-3.78223 11.3467,-6.87678 6.5329,-3.43839 15.8166,-3.43839 11.6905,0 19.255,6.53294 7.9083,6.1891 7.9083,17.87962 v 83.89672 q 0,26.4756 4.126,40.573 4.4699,14.0974 18.2235,14.0974 7.9083,0 14.4412,-4.81375 6.533,-5.15758 11.0029,-14.78508 4.8137,-9.97133 7.2206,-24.41256 2.4069,-14.44124 2.4069,-33.69622 0,-16.50428 -0.3439,-27.85096 0,-11.34669 -0.6876,-19.25499 -0.6877,-7.90829 -2.4069,-14.44123 -1.3754,-6.53294 -4.4699,-13.75356 3.0945,-2.75071 9.9713,-6.1891 7.2206,-3.78223 17.192,-3.78223 11.3466,0 19.2549,7.22062 7.9083,6.87678 7.9083,19.59882 l 0.3439,137.53559 q 0,35.41542 -11.6905,56.04576 -11.6906,20.97418 -31.9771,29.91399 -19.9426,9.28365 -46.0744,9.28365 z"
       style="font-weight:bold;line-height:0;font-family:arima;-inkscape-font-specification:arima;letter-spacing:-0.48402px"
       id="path20" />
  </g>
</svg>
