<svg width="40" height="100" viewBox="0 0 40 100" fill="none" xmlns="http://www.w3.org/2000/svg">
<rect y="20" width="20" height="20" fill="#222222"/>
<rect y="40" width="20" height="20" fill="#222222"/>
<rect y="60" width="20" height="20" fill="#222222"/>
<path d="M0 80H20V100H1C0.447716 100 0 99.5523 0 99V80Z" fill="#222222"/>
<path d="M0 1C0 0.447716 0.447715 0 1 0H20V20H0V1Z" fill="#222222"/>
<path d="M20 0H39C39.5523 0 40 0.447715 40 1V19C40 19.5523 39.5523 20 39 20H20V0Z" fill="#222222"/>
<path d="M20 40H39C39.5523 40 40 40.4477 40 41V59C40 59.5523 39.5523 60 39 60H20V40Z" fill="#222222"/>
<path d="M20 80H39C39.5523 80 40 80.4477 40 81V99C40 99.5523 39.5523 100 39 100H20V80Z" fill="#222222"/>
</svg>
