<svg width="60" height="100" viewBox="0 0 60 100" fill="none" xmlns="http://www.w3.org/2000/svg">
<rect y="20" width="20" height="20" fill="#222222"/>
<rect y="40" width="20" height="20" fill="#222222"/>
<rect x="20" y="40" width="20" height="20" fill="#222222"/>
<rect y="60" width="20" height="20" fill="#222222"/>
<path d="M0 80H20V99C20 99.5523 19.5523 100 19 100H1C0.447716 100 0 99.5523 0 99V80Z" fill="#222222"/>
<path d="M0 1C0 0.447716 0.447715 0 1 0H19C19.5523 0 20 0.447715 20 1V20H0V1Z" fill="#222222"/>
<rect x="40" y="20" width="20" height="20" fill="#222222"/>
<rect x="40" y="40" width="20" height="20" fill="#222222"/>
<rect x="40" y="60" width="20" height="20" fill="#222222"/>
<path d="M40 80H60V99C60 99.5523 59.5523 100 59 100H41C40.4477 100 40 99.5523 40 99V80Z" fill="#222222"/>
<path d="M40 1C40 0.447716 40.4477 0 41 0H59C59.5523 0 60 0.447715 60 1V20H40V1Z" fill="#222222"/>
</svg>
