<?xml version="1.0" encoding="UTF-8"?>
<svg width="18px" height="15px" viewBox="0 0 18 15" version="1.1" xmlns="http://www.w3.org/2000/svg" xmlns:xlink="http://www.w3.org/1999/xlink">
    <g id="Page-1" stroke="none" stroke-width="1" fill="none" fill-rule="evenodd">
        <g id="Desktop" transform="translate(-101.000000, -28.000000)">
            <g id="logo" transform="translate(100.000000, 25.000000)">
                <path d="M10.3803724,3.87792793 L17.5535594,16.3022523 C17.7035718,16.5620815 17.6145478,16.8943238 17.3547185,17.0443363 C17.2721351,17.0920159 17.178456,17.1171171 17.0830969,17.1171171 L2.73672292,17.1171171 C2.43669796,17.1171171 2.19347967,16.8738988 2.19347967,16.5738739 C2.19347967,16.4785148 2.21858091,16.3848357 2.26626047,16.3022523 L9.43944746,3.87792793 C9.58945994,3.61809869 9.9217023,3.52907462 10.1815315,3.6790871 C10.2641149,3.72676665 10.3326928,3.79534452 10.3803724,3.87792793 Z" id="Polygon" stroke="#273D53" stroke-width="1.08648649"></path>
                <polygon id="Polygon" fill="#273D53" points="9.90990991 3.69369369 17.3916899 16.7924794 10.0840863 12.4324324"></polygon>
                <polyline id="Line-2" stroke="#273D53" stroke-width="1.08648649" stroke-linecap="square" points="2.80429199 16.4736892 9.90990991 12.4324324 10 4.1508007 9.90990991 12.4324324 16.8468885 16.4736892"></polyline>
            </g>
        </g>
    </g>
</svg>