<svg width="60" height="100" viewBox="0 0 60 100" fill="none" xmlns="http://www.w3.org/2000/svg">
<rect y="20" width="20" height="20" fill="#222222"/>
<rect y="40" width="20" height="20" fill="#222222"/>
<rect y="60" width="20" height="20" fill="#222222"/>
<path d="M0 80H20V99C20 99.5523 19.5523 100 19 100H1C0.447716 100 0 99.5523 0 99V80Z" fill="#222222"/>
<rect x="20" width="20" height="20" fill="#222222"/>
<path d="M40 0H59C59.5523 0 60 0.447715 60 1V20H40V0Z" fill="#222222"/>
<path d="M40 20H60V39C60 39.5523 59.5523 40 59 40H40V20Z" fill="#222222"/>
<rect x="20" y="40" width="20" height="20" fill="#222222"/>
<path d="M40 80H60V99C60 99.5523 59.5523 100 59 100H41C40.4477 100 40 99.5523 40 99V80Z" fill="#222222"/>
<path d="M40 60H59C59.5523 60 60 60.4477 60 61V80H40V60Z" fill="#222222"/>
<path d="M0 1C0 0.447716 0.447715 0 1 0H20V20H0V1Z" fill="#222222"/>
</svg>
